<svg width="60mm" viewBox="0 0 100 90" xmlns="http://www.w3.org/2000/svg">
	<defs>
		<g id="diagram">
			<rect x="0" y="30" width="10" height="40" />
			<rect x="10" y="20" width="10" height="50" />
			<rect x="20" y="10" width="10" height="60" />
			<rect x="30" y="50" width="10" height="20" />
			<rect x="40" y="30" width="10" height="40" />
			<rect x="50" y="10" width="10" height="60" />
		</g>
	</defs>
	<g transform="translate(30, 10)">
		<use href="#diagram" sroke="none" fill="gray" opacity="0.4"/>
		<g stroke-width="0.5" stroke="gray">
			<line x1="0" x2="60" y1="0" y2="0" />
			<line x1="0" x2="60" y1="10" y2="10" />
			<line x1="0" x2="60" y1="20" y2="20" />
			<line x1="0" x2="60" y1="30" y2="30" />
			<line x1="0" x2="60" y1="40" y2="40" />
			<line x1="0" x2="60" y1="50" y2="50" />
			<line x1="0" x2="60" y1="60" y2="60" />
			<line x1="0" x2="60" y1="70" y2="70" />
			<line x1="0" x2="0" y1="0" y2="70" />
			<line x1="10" x2="10" y1="0" y2="70" />
			<line x1="20" x2="20" y1="0" y2="70" />
			<line x1="30" x2="30" y1="0" y2="70" />
			<line x1="40" x2="40" y1="0" y2="70" />
			<line x1="50" x2="50" y1="0" y2="70" />
			<line x1="60" x2="60" y1="0" y2="70" />
		</g>
		<use href="#diagram" stroke-width="1" stroke="black" fill="none" opacity=""/>
		<g text-anchor="middle" font-size="6">
			<text x="5" y="75">пн</text>
			<text x="15" y="75">вт</text>
			<text x="25" y="75">ср</text>
			<text x="35" y="75">чт</text>
			<text x="45" y="75">пт</text>
			<text x="55" y="75">сб</text>
		</g>
		<g text-anchor="end" font-size="6">
			<text x="-2" y="72">0</text>
			<text x="-2" y="62">1</text>
			<text x="-2" y="52">2</text>
			<text x="-2" y="42">3</text>
			<text x="-2" y="32">4</text>
			<text x="-2" y="22">5</text>
			<text x="-2" y="12">6</text>
		</g>
		<g text-anchor="end" font-size="6">
			<text x="0" y="0">руб. за</text>
			<text x="0" y="5">тугрик</text>
		</g>
	</g>
	
</svg>